<?xml version="1.0" encoding="UTF-8"?> <svg xmlns="http://www.w3.org/2000/svg" xmlns:xlink="http://www.w3.org/1999/xlink" width="74.846" height="67.702" viewBox="0 0 74.846 67.702"><defs><linearGradient id="linear-gradient" x1="0.5" y1="0.169" x2="0.5" y2="0.898" gradientUnits="objectBoundingBox"><stop offset="0" stop-color="#2f5add"></stop><stop offset="1" stop-color="#496ddb" stop-opacity="0"></stop></linearGradient><radialGradient id="radial-gradient" cx="0.5" cy="1" r="0.701" gradientTransform="translate(0 -0.098) scale(1 1.098)" gradientUnits="objectBoundingBox"><stop offset="0" stop-color="#f1f6f9"></stop><stop offset="1" stop-color="#496ddb"></stop></radialGradient><radialGradient id="radial-gradient-2" cx="0.791" cy="0.175" r="0.73" gradientTransform="translate(0 -0.004) scale(1 1.02)" gradientUnits="objectBoundingBox"><stop offset="0" stop-color="#496ddb"></stop><stop offset="1" stop-color="#f4acb7"></stop></radialGradient></defs><g id="stack" transform="translate(0.5)"><path id="Union_20" data-name="Union 20" d="M0,26.721H0V0H27.6V26.72h0c0,1.988-6.179,3.6-13.8,3.6S0,28.709,0,26.721Z" transform="translate(46.745 5.68)" fill="url(#linear-gradient)"></path><ellipse id="Ellipse_13006" data-name="Ellipse 13006" cx="13.801" cy="5" rx="13.801" ry="5" transform="translate(46.745)" fill="url(#radial-gradient)"></ellipse><circle id="Ellipse_11123" data-name="Ellipse 11123" cx="26.773" cy="26.773" r="26.773" transform="translate(11 13.4)" fill="url(#radial-gradient-2)"></circle><ellipse id="Ellipse_11106" data-name="Ellipse 11106" cx="13.799" cy="3.6" rx="13.799" ry="3.6" transform="translate(0 36.002)" fill="none" stroke="#496ddb" stroke-width="1"></ellipse><ellipse id="Ellipse_11105" data-name="Ellipse 11105" cx="13.799" cy="3.6" rx="13.799" ry="3.6" transform="translate(0 28.802)" fill="none" stroke="#496ddb" stroke-width="1"></ellipse><path id="Path_21576" data-name="Path 21576" d="M20054-5253.5v6.954" transform="translate(-20026.398 5286.229)" fill="none" stroke="#496ddb" stroke-width="1"></path><path id="Path_21577" data-name="Path 21577" d="M20029-5253.5v6.42" transform="translate(-20028.961 5286.229)" fill="none" stroke="#496ddb" stroke-width="1"></path><ellipse id="Ellipse_11106-2" data-name="Ellipse 11106" cx="13.799" cy="3.6" rx="13.799" ry="3.6" transform="translate(0 48.003)" fill="none" stroke="#496ddb" stroke-width="1"></ellipse><ellipse id="Ellipse_11105-2" data-name="Ellipse 11105" cx="13.799" cy="3.6" rx="13.799" ry="3.6" transform="translate(0 40.804)" fill="none" stroke="#496ddb" stroke-width="1"></ellipse><path id="Path_21576-2" data-name="Path 21576" d="M20054-5253.5v6.954" transform="translate(-20026.398 5298.231)" fill="none" stroke="#496ddb" stroke-width="1"></path><path id="Path_21577-2" data-name="Path 21577" d="M20029-5253.5v6.42" transform="translate(-20028.961 5298.231)" fill="none" stroke="#496ddb" stroke-width="1"></path><ellipse id="Ellipse_11106-3" data-name="Ellipse 11106" cx="13.799" cy="3.6" rx="13.799" ry="3.6" transform="translate(0 60.002)" fill="none" stroke="#496ddb" stroke-width="1"></ellipse><ellipse id="Ellipse_11105-3" data-name="Ellipse 11105" cx="13.799" cy="3.6" rx="13.799" ry="3.6" transform="translate(0 52.803)" fill="none" stroke="#496ddb" stroke-width="1"></ellipse><path id="Path_21576-3" data-name="Path 21576" d="M20054-5253.5v6.954" transform="translate(-20026.398 5310.23)" fill="none" stroke="#496ddb" stroke-width="1"></path><path id="Path_21577-3" data-name="Path 21577" d="M20029-5253.5v6.42" transform="translate(-20028.961 5310.23)" fill="none" stroke="#496ddb" stroke-width="1"></path></g></svg> 