<?xml version="1.0" encoding="UTF-8"?> <svg xmlns="http://www.w3.org/2000/svg" xmlns:xlink="http://www.w3.org/1999/xlink" width="63.479" height="66.749" viewBox="0 0 63.479 66.749"><defs><radialGradient id="radial-gradient" cx="0.5" cy="0.5" r="0.5" gradientUnits="objectBoundingBox"><stop offset="0" stop-color="#496ddb"></stop><stop offset="1" stop-color="#f4acb7"></stop></radialGradient></defs><g id="Group_1913" data-name="Group 1913" transform="translate(0.001 0)"><path id="Path_21561" data-name="Path 21561" d="M2767.332,778.842a24.925,24.925,0,0,0-24.925,24.925h49.849A24.925,24.925,0,0,0,2767.332,778.842Z" transform="translate(-2735.688 -737.018)" fill="url(#radial-gradient)"></path><path id="Path_21547" data-name="Path 21547" d="M.224,43.535s0-26.19,0-32.361A11.173,11.173,0,0,1,11.4,0H44.886L0,44.886Z" transform="translate(31.738 63.479) rotate(-135)" fill="#f4acb7"></path><g id="Group_1909" data-name="Group 1909" transform="translate(20.035 5.199)"><g id="Ellipse_11077" data-name="Ellipse 11077" fill="none" stroke="#0b2545" stroke-width="1"><ellipse cx="11.767" cy="11.767" rx="11.767" ry="11.767" stroke="none"></ellipse><ellipse cx="11.767" cy="11.767" rx="11.267" ry="11.267" fill="none"></ellipse></g><ellipse id="Ellipse_11078" data-name="Ellipse 11078" cx="6.004" cy="6.004" rx="6.004" ry="6.004" transform="translate(5.764 5.766)" fill="#496ddb"></ellipse></g></g></svg> 