<?xml version="1.0" encoding="UTF-8"?> <svg xmlns="http://www.w3.org/2000/svg" xmlns:xlink="http://www.w3.org/1999/xlink" width="80.318" height="54.438" viewBox="0 0 80.318 54.438"><defs><linearGradient id="linear-gradient" x1="0.5" x2="0.5" y2="1" gradientUnits="objectBoundingBox"><stop offset="0" stop-color="#2f5add"></stop><stop offset="1" stop-color="#0b2545"></stop></linearGradient><linearGradient id="linear-gradient-2" x1="0.5" x2="0.5" y2="1" gradientUnits="objectBoundingBox"><stop offset="0" stop-color="#2f5add"></stop><stop offset="1" stop-color="#496ddb" stop-opacity="0"></stop></linearGradient><radialGradient id="radial-gradient" cx="0.5" cy="0.5" r="0.5" gradientUnits="objectBoundingBox"><stop offset="0" stop-color="#496ddb"></stop><stop offset="1" stop-color="#f4acb7"></stop></radialGradient></defs><g id="Group_2482" data-name="Group 2482" transform="translate(-1016.828 -448.811)"><rect id="Rectangle_2024" data-name="Rectangle 2024" width="69.609" height="43.729" rx="2" transform="translate(1027.537 448.811)" fill="url(#linear-gradient)"></rect><rect id="Rectangle_2025" data-name="Rectangle 2025" width="69.609" height="43.729" rx="2" transform="translate(1016.828 459.52)" fill="url(#linear-gradient-2)"></rect><rect id="Rectangle_2026" data-name="Rectangle 2026" width="24.096" height="24.095" rx="4" transform="translate(1024.861 468.444)" fill="url(#radial-gradient)"></rect><rect id="Rectangle_2027" data-name="Rectangle 2027" width="25.88" height="6.247" rx="2" transform="translate(1052.525 468.444)" fill="#f4acb7"></rect><rect id="Rectangle_2028" data-name="Rectangle 2028" width="25.88" height="6.247" rx="2" transform="translate(1052.525 477.368)" fill="#f4acb7"></rect><g id="Group_1942" data-name="Group 1942" transform="translate(1028.012 476.763)"><path id="Path_21575" data-name="Path 21575" d="M987.944,221.259a12.479,12.479,0,0,1-17.794,0,12.479,12.479,0,0,1,17.794,0Z" transform="translate(-970.151 -217.53)" fill="#f1f6f9" stroke="#f1f6f9" stroke-miterlimit="10" stroke-width="1"></path><ellipse id="Ellipse_11104" data-name="Ellipse 11104" cx="3.034" cy="3.034" rx="3.034" ry="3.034" transform="translate(6.068 0.674)" fill="#496ddb"></ellipse></g></g></svg> 