<?xml version="1.0" encoding="UTF-8"?> <svg xmlns="http://www.w3.org/2000/svg" xmlns:xlink="http://www.w3.org/1999/xlink" width="80.001" height="80.483" viewBox="0 0 80.001 80.483"><defs><linearGradient id="linear-gradient" x1="0.5" x2="0.5" y2="1" gradientUnits="objectBoundingBox"><stop offset="0" stop-color="#f1f6f9"></stop><stop offset="1" stop-color="#f1f6f9" stop-opacity="0"></stop></linearGradient></defs><g id="Group_2766" data-name="Group 2766" transform="translate(-404.762 -857.492)"><g id="Group_2764" data-name="Group 2764" transform="translate(-254.109 483.269)"><g id="Ellipse_11077" data-name="Ellipse 11077" transform="translate(676.371 415.171)" fill="none" stroke="#0b2545" stroke-width="1"><ellipse cx="11.767" cy="11.767" rx="11.767" ry="11.767" stroke="none"></ellipse><ellipse cx="11.767" cy="11.767" rx="11.267" ry="11.267" fill="none"></ellipse></g><ellipse id="Ellipse_11078" data-name="Ellipse 11078" cx="6.004" cy="6.004" rx="6.004" ry="6.004" transform="translate(682.135 420.937)" fill="#f4acb7"></ellipse></g><g id="Group_2765" data-name="Group 2765" transform="translate(-234.109 499.269)"><g id="Ellipse_11077-2" data-name="Ellipse 11077" transform="translate(676.371 415.171)" fill="none" stroke="#0b2545" stroke-width="1"><ellipse cx="11.767" cy="11.767" rx="11.767" ry="11.767" stroke="none"></ellipse><ellipse cx="11.767" cy="11.767" rx="11.267" ry="11.267" fill="none"></ellipse></g><ellipse id="Ellipse_11078-2" data-name="Ellipse 11078" cx="6.004" cy="6.004" rx="6.004" ry="6.004" transform="translate(682.135 420.937)" fill="#496ddb"></ellipse></g><g id="Group_2762" data-name="Group 2762" transform="translate(-108.237 369.493)"><path id="Union_15" data-name="Union 15" d="M-13374.517,7909.923H-13392V7875h35v34.924h-4.9v12.04Z" transform="translate(13905 -7387)" fill="#496ddb"></path><g id="Group_2749" data-name="Group 2749" transform="translate(283.586 45.749)"><path id="Union_16" data-name="Union 16" d="M-13675.586,7846.7a8.041,8.041,0,0,1,4.478-7.21l-3.32-3.323h13.831l-.244.175-3.144,3.145a8.042,8.042,0,0,1,4.486,7.213Z" transform="translate(13914.457 -7377.836)" fill="url(#linear-gradient)"></path><ellipse id="Ellipse_11077-3" data-name="Ellipse 11077" cx="3.797" cy="3.797" rx="3.797" ry="3.797" transform="translate(243.167 449.617)" fill="url(#linear-gradient)"></ellipse></g></g><g id="Group_2763" data-name="Group 2763" transform="translate(449.763 874.011)"><path id="Union_15-2" data-name="Union 15" d="M17.484,12.04H0V46.964H35V12.04H30.1V0Z" transform="translate(35 46.964) rotate(180)" fill="#f4acb7"></path><g id="Group_2749-2" data-name="Group 2749" transform="translate(9.455 7.367)"><path id="Union_16-2" data-name="Union 16" d="M0,0A8.041,8.041,0,0,0,4.478,7.21l-3.32,3.323H14.988l-.244-.175L11.6,7.213A8.042,8.042,0,0,0,16.087,0Z" transform="translate(16.087 19.247) rotate(180)" fill="url(#linear-gradient)"></path><ellipse id="Ellipse_11077-4" data-name="Ellipse 11077" cx="3.797" cy="3.797" rx="3.797" ry="3.797" transform="translate(4.197)" fill="url(#linear-gradient)"></ellipse></g></g></g></svg> 