<?xml version="1.0" encoding="UTF-8"?> <svg xmlns="http://www.w3.org/2000/svg" xmlns:xlink="http://www.w3.org/1999/xlink" width="75.247" height="67.38" viewBox="0 0 75.247 67.38"><defs><linearGradient id="linear-gradient" x1="0.5" y1="-0.094" x2="0.5" y2="1" gradientUnits="objectBoundingBox"><stop offset="0" stop-color="#f4acb7"></stop><stop offset="1" stop-color="#3772ff"></stop></linearGradient></defs><g id="Group_1925" data-name="Group 1925" transform="translate(0.5 0.5)"><path id="Path_21557" data-name="Path 21557" d="M21.554,20H74.339L52.785,33.6H0Z" transform="translate(0 32.785)" fill="none" stroke="#0b2545" stroke-linejoin="bevel" stroke-width="1"></path><path id="Path_21556" data-name="Path 21556" d="M0,6.64,21.462-6.921V45.863L0,59.425Z" transform="translate(0 6.955)" fill="none" stroke="#0b2545" stroke-linejoin="bevel" stroke-width="1"></path><path id="Path_21543" data-name="Path 21543" d="M10.566,20H36.441L25.875,26.665H0Z" transform="translate(18.951 22.795)" fill="#496ddb"></path><g id="Group_1924" data-name="Group 1924" transform="translate(16.215 14.475)"><rect id="Rectangle_2002" data-name="Rectangle 2002" width="29.764" height="29.764" transform="translate(0 7.666)" fill="#496ddb"></rect><path id="Path_21542" data-name="Path 21542" d="M12.154,20H41.918L29.764,27.666H0Z" transform="translate(0 -20)" fill="url(#linear-gradient)"></path><path id="Path_21544" data-name="Path 21544" d="M0,.726,12.1-6.921V22.843L0,30.49Z" transform="translate(29.763 6.94)" fill="url(#linear-gradient)"></path></g><rect id="Rectangle_2003" data-name="Rectangle 2003" width="52.785" height="52.784" transform="translate(0 13.596)" fill="none" stroke="#0b2545" stroke-linejoin="bevel" stroke-width="1"></rect><path id="Path_21545" data-name="Path 21545" d="M21.554,20H74.339L52.785,33.6H0Z" transform="translate(0 -20)" fill="none" stroke="#0b2545" stroke-linejoin="bevel" stroke-width="1"></path><path id="Path_21546" data-name="Path 21546" d="M0,6.64,21.462-6.921V45.863L0,59.425Z" transform="translate(52.785 6.955)" fill="none" stroke="#0b2545" stroke-linejoin="bevel" stroke-width="1"></path></g></svg> 