<?xml version="1.0" encoding="UTF-8"?> <svg xmlns="http://www.w3.org/2000/svg" xmlns:xlink="http://www.w3.org/1999/xlink" width="74.288" height="74.653" viewBox="0 0 74.288 74.653"><defs><radialGradient id="radial-gradient" cx="0.359" cy="0.692" r="0.642" gradientTransform="translate(-0.029 0.016) rotate(-2.429)" gradientUnits="objectBoundingBox"><stop offset="0" stop-color="#496ddb"></stop><stop offset="1" stop-color="#f4acb7"></stop></radialGradient></defs><g id="Group_2515" data-name="Group 2515" transform="translate(0 0)"><g id="Group_1910" data-name="Group 1910" transform="translate(0 23.479)"><g id="Ellipse_11075" data-name="Ellipse 11075" transform="translate(0 0)" fill="none" stroke="#0b2545" stroke-width="1"><ellipse cx="12.908" cy="12.908" rx="12.908" ry="12.908" stroke="none"></ellipse><ellipse cx="12.908" cy="12.908" rx="12.408" ry="12.408" fill="none"></ellipse></g><ellipse id="Ellipse_11076" data-name="Ellipse 11076" cx="6.585" cy="6.585" rx="6.585" ry="6.585" transform="translate(6.322 6.324)" fill="#f4acb7"></ellipse></g><circle id="Ellipse_11079" data-name="Ellipse 11079" cx="23.73" cy="23.73" r="23.73" transform="translate(8.175 27.194)" fill="url(#radial-gradient)"></circle><path id="Path_21562" data-name="Path 21562" d="M6.514,21.111.373,4.12C-.8.879.879-.8,4.119.373L21.7,6.728,6.653,21.778Z" transform="matrix(-0.899, 0.438, -0.438, -0.899, 74.288, 19.574)" fill="#496ddb"></path><path id="Path_21563" data-name="Path 21563" d="M3.887,12.6.223,2.458C-.476.525.525-.476,2.458.223L12.951,4.015,3.97,13Z" transform="matrix(-0.899, 0.438, -0.438, -0.899, 63.392, 27.208)" fill="#496ddb"></path><path id="Path_21564" data-name="Path 21564" d="M0,47.3V0" transform="translate(58.551 2.745) rotate(19)" fill="none" stroke="#0b2545" stroke-width="1"></path></g></svg> 