<?xml version="1.0" encoding="UTF-8"?> <svg xmlns="http://www.w3.org/2000/svg" id="Group_1917" data-name="Group 1917" width="80.722" height="70.881" viewBox="0 0 80.722 70.881"><g id="Ellipse_10" data-name="Ellipse 10" transform="translate(57.185)" fill="none" stroke="#0b2545" stroke-width="1"><ellipse cx="11.767" cy="11.767" rx="11.767" ry="11.767" stroke="none"></ellipse><ellipse cx="11.767" cy="11.767" rx="11.267" ry="11.267" fill="none"></ellipse></g><ellipse id="Ellipse_11" data-name="Ellipse 11" cx="6.004" cy="6.004" rx="6.004" ry="6.004" transform="translate(62.949 5.766)" fill="#f4acb7"></ellipse><g id="Ellipse_10-2" data-name="Ellipse 10" transform="translate(57.187 47.346)" fill="none" stroke="#0b2545" stroke-width="1"><ellipse cx="11.767" cy="11.767" rx="11.767" ry="11.767" stroke="none"></ellipse><ellipse cx="11.767" cy="11.767" rx="11.267" ry="11.267" fill="none"></ellipse></g><ellipse id="Ellipse_11-2" data-name="Ellipse 11" cx="6.004" cy="6.004" rx="6.004" ry="6.004" transform="translate(62.951 53.112)" fill="#f4acb7"></ellipse><g id="Ellipse_10-3" data-name="Ellipse 10" transform="translate(57.187 23.811)" fill="none" stroke="#0b2545" stroke-width="1"><ellipse cx="11.767" cy="11.767" rx="11.767" ry="11.767" stroke="none"></ellipse><ellipse cx="11.767" cy="11.767" rx="11.267" ry="11.267" fill="none"></ellipse></g><ellipse id="Ellipse_11-3" data-name="Ellipse 11" cx="6.004" cy="6.004" rx="6.004" ry="6.004" transform="translate(62.951 29.576)" fill="#f4acb7"></ellipse><path id="Path_21569" data-name="Path 21569" d="M0,12.574V3.227A3.227,3.227,0,0,1,3.227,0H12.9" transform="translate(44.289 11.237)" fill="none" stroke="#0b2545" stroke-miterlimit="10" stroke-width="1"></path><path id="Path_21570" data-name="Path 21570" d="M0,0V9.347a3.227,3.227,0,0,0,3.227,3.227H12.9" transform="translate(44.287 47.508)" fill="none" stroke="#0b2545" stroke-miterlimit="10" stroke-width="1"></path><path id="Path_21571" data-name="Path 21571" d="M18715.646-4841.807h-32.875" transform="translate(-18657.621 4877.387)" fill="none" stroke="#0b2545" stroke-width="1"></path><path id="Path_21572" data-name="Path 21572" d="M0,12.574V3.227A3.227,3.227,0,0,1,3.227,0H12.9" transform="translate(44.289 35.58) rotate(180)" fill="none" stroke="#0b2545" stroke-miterlimit="10" stroke-width="1"></path><path id="Path_21573" data-name="Path 21573" d="M0,12.574V3.227A3.227,3.227,0,0,1,3.227,0H12.9" transform="translate(44.289 35.58) rotate(90)" fill="none" stroke="#0b2545" stroke-miterlimit="10" stroke-width="1"></path><path id="Path_21535" data-name="Path 21535" d="M732.787,1087.585l-3.112-11.984,3.109-11.971h-5.728l-.818,3.149a14.709,14.709,0,1,0,0,17.644l.821,3.161Zm-9.431-9.707,0,.008a9.166,9.166,0,1,1,0-4.588l0,0,.6,2.3Z" transform="translate(-699.764 -1040.481)" fill="#496ddb"></path></svg> 